<?xml version="1.0" standalone="no"?>
<!DOCTYPE svg PUBLIC "-//W3C//DTD SVG 20010904//EN"
 "http://www.w3.org/TR/2001/REC-SVG-20010904/DTD/svg10.dtd">
<svg version="1.0" xmlns="http://www.w3.org/2000/svg"
 width="600.000000pt" height="600.000000pt" viewBox="0 0 600.000000 600.000000"
 preserveAspectRatio="xMidYMid meet">
<metadata>
Created by potrace 1.11, written by Peter Selinger 2001-2013
</metadata>
<g transform="translate(0.000000,600.000000) scale(0.100000,-0.100000)"
fill="#000000" stroke="none">
<path d="M496 5984 c-243 -53 -429 -241 -480 -487 -14 -68 -16 -328 -16 -2497
0 -2169 2 -2429 16 -2497 52 -251 239 -437 490 -488 71 -14 324 -15 2539 -13
l2460 3 58 22 c206 79 331 204 410 410 l22 58 3 2460 c2 2215 1 2468 -13 2539
-51 251 -237 438 -488 490 -68 14 -326 16 -2504 15 -2105 -1 -2437 -3 -2497
-15z m4215 -834 c52 -28 49 58 56 -1693 5 -1528 5 -1626 -12 -1692 -66 -263
-272 -459 -565 -537 -123 -33 -340 -33 -455 0 -315 90 -525 341 -525 629 0
329 274 609 652 664 148 22 322 -4 478 -71 40 -16 73 -29 74 -28 1 2 0 486 -2
1076 -2 905 -5 1072 -17 1072 -7 0 -428 -54 -934 -120 -506 -66 -927 -120
-936 -120 -15 0 -16 -111 -10 -1382 7 -1381 7 -1383 -14 -1463 -36 -138 -83
-218 -185 -321 -79 -78 -105 -97 -196 -142 -146 -72 -250 -96 -415 -96 -104 0
-147 4 -214 22 -221 60 -391 197 -480 385 -40 86 -55 158 -54 257 2 165 67
307 198 436 69 67 101 90 186 132 150 74 206 86 379 87 161 0 226 -13 364 -71
l79 -34 -6 1331 -7 1330 25 24 c13 14 28 25 32 26 4 0 557 69 1228 154 671 84
1228 153 1238 154 10 1 27 -4 38 -9z"/>
</g>
</svg>
